<svg id="Layer_1" data-name="Layer 1" xmlns="http://www.w3.org/2000/svg" viewBox="0 0 512 512"><defs><style>.cls-1{fill:#ffff78;}.cls-2{fill:#119;}</style></defs><rect class="cls-1" width="512" height="512" rx="159.08"/><path class="cls-2" d="M256,114.55a78.35,78.35,0,1,1-78.35,78.35A78.44,78.44,0,0,1,256,114.55m0-25A103.35,103.35,0,1,0,359.35,192.9,103.35,103.35,0,0,0,256,89.55Z"/><path class="cls-2" d="M256,254.17a61.34,61.34,0,0,1-61.27-61.27h25a36.27,36.27,0,1,0,72.54,0h25A61.34,61.34,0,0,1,256,254.17Z"/><rect class="cls-2" x="243.5" y="34.75" width="25" height="39.22"/><rect class="cls-2" x="149.44" y="68.43" width="25" height="39.22" transform="translate(-14.82 140.3) rotate(-45)"/><rect class="cls-2" x="330.45" y="75.54" width="39.22" height="25" transform="translate(40.28 273.31) rotate(-45)"/><path class="cls-2" d="M371.94,431.09h-232v-110h232Zm-207-25h182v-60h-182Z"/><rect class="cls-2" x="243.44" y="333.58" width="25" height="143.67"/></svg>